# xmcd CD database file
#
# Track frame offsets:
#	150
#	14020
#	28410
#	41417
#	56800
#	71780
#	83672
#	94352
#	102212
#	110730
#	116387
#	124515
#	135815
#	146467
#
# Disc length: 2119 seconds
#
# Revision: 0
# Processed by: cddbd v1.4PL0 Copyright (c) Steve Scherf et al.
# Submitted via: CDex 1.40Release
#
DISCID=c108450e
DTITLE=Earl Bullhead - Sacred Directions
DYEAR=1900
DGENRE=Native American
TTITLE0=TUNKASILA HEYAYAKAYE
TTITLE1=TUWE WAKATA WAKAN
TTITLE2=WAKAN TANKA TOKAHIYA
TTITLE3=CANUNPA OPAHKTA OLOWAN
TTITLE4=TATE SAKOWIN OLOWAN WAN
TTITLE5=TUWA WAKILOWAN
TTITLE6=CANLI OPAHKTA OLOWAN
TTITLE7=TUWE MAKIPANA
TTITLE8=INYAN WAN HINAJINYE
TTITLE9=TUNKASILA WAMAYANK U WE
TTITLE10=HOTAN I PELO WAKATANHAN
TTITLE11=CANUNPA NICA U PE LO
TTITLE12=TATE TOPA OLOWAN WAN
TTITLE13=HOTAN IN YAN KINAJIPELO
EXTD=ID3G: 64
EXTT0=
EXTT1=
EXTT2=
EXTT3=
EXTT4=
EXTT5=
EXTT6=
EXTT7=
EXTT8=
EXTT9=
EXTT10=
EXTT11=
EXTT12=
EXTT13=
PLAYORDER=
